<?xml version="1.0" encoding="UTF-8"?>
<svg id="Layer_2" data-name="Layer 2" xmlns="http://www.w3.org/2000/svg" viewBox="0 0 1374.52 143.28">
  <g id="Layer_2-2" data-name="Layer 2">
    <g id="Layer_1-2" data-name="Layer 1-2">
      <path d="m72.01,143.23c-.66-.28-1.61-.53-2.4-1.03-1.48-.91-3-1.83-4.25-3.01-.56-.53-.52-1.71-.73-2.61-1.02-4.48-1.99-8.97-3.06-13.44-.63-2.66-1.52-5.26-2.09-7.94-.54-2.53-.75-5.13-1.2-7.68-.44-2.47-.71-5.04-1.61-7.34-.78-1.97-.83-3.91-1.06-5.92-.41-3.62-1.05-7.22-1.54-10.84-.46-3.36-.47-6.83-1.37-10.06-1.06-3.79-.79-7.86-2.89-11.46-.97-1.66-1.08-3.87-1.34-5.87-.43-3.35-1.7-6.25-4.08-8.64-.87-.87-1.82-1.66-2.78-2.44-1.85-1.51-3.76-2.08-6.27-1.3-1.75.54-3.8.04-5.71.17-.78.05-1.54.54-2.3.85-.23.09-.44.3-.66.31-2.55,0-3.94,1.43-5.43,3.43-1.61,2.16-2.76,4.49-4.04,6.79-.02.04-.05.09-.06.14-.67,2.59-1.37,5.17-1.98,7.78-.55,2.34-1.09,4.68-1.46,7.05-.32,2.08-.46,4.19-.57,6.29-.07,1.33.01,2.67.08,4,.08,1.51.26,3.02.3,4.53.01.52-.52,1.13-.39,1.56.33,1.04-1.04,1.69-.3,3.01.57,1.01,0,2.64,0,4,0,.45.14.9.19,1.35.06.48.22.99.12,1.44-.33,1.47-.7,2.93-1.18,4.36-.43,1.29.42,2.15.85,3.18.2.49.24,1.05.31,1.58.09.66.17,1.33.17,1.99.01,1.43.02,2.86-.06,4.29-.08,1.43-.36,2.84-.42,4.27-.12,3.2-.21,6.4-.22,9.6,0,1.87.38,3.76.21,5.61-.16,1.85-.2,3.71-2.6,4.75-2.36,1.02-4.57.85-6.85.45-.57-.1-1.43-1.05-1.41-1.58.08-2.56-.42-5.12.77-7.69.64-1.39.2-3.31.11-4.98-.17-3.2-.45-6.4-.67-9.6-.06-.91-.06-1.82-.12-2.73-.18-2.81-.37-5.61-.56-8.41-.02-.29-.09-.62,0-.87,1.18-2.75.43-5.49.16-8.27-.24-2.47.08-5,.13-7.5,0-.33-.18-.67-.17-1,.04-1.31.14-2.62.2-3.94.03-.59,0-1.18.06-1.76.27-2.78.6-5.55.84-8.33.1-1.15-.08-2.33.06-3.47.24-1.94.54-3.88.98-5.78.25-1.09.86-2.09,1.27-3.14.16-.4.25-.83.34-1.26.63-3.14,1.19-6.3,1.92-9.41.25-1.07-.05-1.74-.92-2.02-2.5-.82-3.35-2.8-3.66-5.08-.24-1.75.05-3.61-.41-5.28-.57-2.05.22-4.25-1.34-6.29-.95-1.25-.65-3.44-.93-5.28,2.2-.5,3.38-3.06,6.08-1.99-.13-.34-.2-.53-.27-.72,1.95-.11,1.98-.2,1.95-2.42-.02-1.35.26-2.72.1-4.04-.22-1.82-.8-3.59-1.08-5.4-.11-.7.14-1.47.33-2.18.56-2.17,1.41-4.22,3.17-5.69.41-.34,1.21-.35,1.81-.29,2.77.28,5.61.45,7.75,2.6,3.05,3.08,3.75,4.2,1.7,8.34-.89,1.8-1.06,3.95-1.8,5.84-.98,2.5-1.63,5.09-2.3,7.66-.51,1.97-.58,4.05-.79,6.09-.03.29.22.64.39.93.48.79,1.19,1.51,1.46,2.36.48,1.53,1.6,1.58,2.71,1.24.87-.26,1.59-.97,2.41-1.45.23-.13.54-.15.82-.18,2.55-.25,5.17-.19,7.64-.79,3.58-.87,6.8.68,10.2.95,1.34.11,2.72.4,3.96.9,2.76,1.13,5.06,2.99,7,5.25,1.24,1.45,2.56,2.87,3.52,4.5.96,1.64,1.52,3.51,2.24,5.29.29.72.63,1.43.82,2.18.66,2.59,1.26,5.21,1.91,7.8.59,2.37,1.23,4.73,1.84,7.1.09.34.18.69.16,1.03-.15,2.45,1.54,4.64.58,7.32-.66,1.83,0,3.95,1.03,5.83.51.94.5,2.17.72,3.26,1.31-.14,1.8-.92,1.64-2.1-.16-1.19-.23-2.4-.19-3.6.06-1.74.15-3.5.43-5.22.15-.92.91-1.75,1.05-2.67.17-1.14,0-2.33-.05-3.5-.03-.77-.14-1.53-.16-2.29-.03-.92,0-1.85,0-2.77,0-.48-.04-.96-.01-1.44.06-1.16.42-2.36-.94-3.16-.23-.14-.23-.92-.12-1.35.35-1.37.48-2.64-.82-3.62-.08-.06-.2-.19-.18-.22,1.13-1.93-1-4.26.81-6.12,1.81-1.86,2.7-4.37,4.22-6.4,2.58-3.44,6.08-5.57,10.56-5.66.32,0,.65.15.97.26.93.31,1.95,1.05,2.78.88,2.88-.58,5.12.87,7.45,1.99,2.7,1.3,5.05,3.12,6.98,5.42.46.55.56,1.39,1.01,1.95.71.9,1.58,1.68,2.39,2.49.34.34.77.61,1.05.99,1.69,2.25,3.29,4.58,5.06,6.78,1.05,1.31,1.89,2.58,2.08,4.33.1.92.86,1.75,1.19,2.67.25.69.4,1.46.41,2.19,0,1-.18,1.99-.3,2.99-.14,1.18-.2,2.38-.46,3.54-.24,1.06-.2,1.94.58,2.77.69.73.91,1.38-.08,2.24-.53.46-.7,1.51-.77,2.31-.2,2.41-.34,4.83-.34,7.25,0,1.55.35,3.11.38,4.66.04,1.77-.39,3.59-.1,5.31.31,1.83,1.26,3.56,1.87,5.35.74,2.18,2.68,3.06,4.36,4.29.87.64,1.43,1.7,2.16,2.55.18.21.43.49.67.51,2.66.18,5.33.43,7.99.39,1.22-.02,2.14-.91,2.54-2.21.17-.56.45-1.16.87-1.55,1.52-1.4,1.53-3.22,1.66-5.05.14-1.87.27-3.75.63-5.58.69-3.53.36-7.02-.26-10.5-.19-1.05-.02-1.85.9-2.47.8-.53,1.56-.9,2.43-.14.17.15.46.18.71.23,3.59.61,5.94,3.64,5.81,7.24-.04,1.1.35,2.23.59,3.33.24,1.12.74,2.23.73,3.34-.03,3.05-.28,6.1-.41,9.14-.02.44-.04.98.18,1.3.99,1.43.18,2.49-.56,3.62-.96,1.46-1.62,3.22-2.85,4.38-2.49,2.33-4.07,5.8-8.07,6.38-2.24.33-4.38,1.31-6.61,1.82-1.12.26-2.35-.02-3.49.17-2.64.43-2.52.37-4.46-1.42-.81-.75-2.2-.87-3.33-1.28-.28-.1-.67-.15-.8-.35-1.94-3.13-5.57-4.38-7.88-7.08-.69-.8-1.21-1.74-1.82-2.61-.22-.32-.45-.63-.69-.93-1.4-1.76-3.07-3.37-3.33-5.78-.02-.15-.02-.31-.09-.44-1.91-3.69-1.23-7.57-.97-11.46.13-1.95-.2-3.94-.2-5.9,0-1.28.24-2.56.33-3.84.14-1.9.27-3.8.37-5.71.02-.33-.18-.66-.24-.99-.09-.49-.39-1.16-.18-1.45,1.55-2.16.56-4.71,1.15-7.02.14-.55-.55-1.29-.8-1.96-1.21-3.25-3.08-6.06-5.52-8.54-.86-.87-1.64-1.92-2.13-3.03-1.5-3.45-4.25-5.33-7.62-6.58-1.47-.54-3.1.61-3.71,2.09-1.22,2.96-1.65,6.06-1.85,9.2-.2,3-.37,6.01-.37,9.02,0,1.93.35,3.85.51,5.78.03.37-.16.75-.16,1.13.02,1.8-.57,3.5-.79,5.23-.37,2.87-.16,5.82-.12,8.73.02,2.14.49,4.33.15,6.4-.41,2.52.04,4.96-.08,7.42-.09,1.87.39,3.72-.21,5.65-.48,1.56-.13,3.36-.18,5.06-.08,2.6-.15,5.19-.28,7.79-.08,1.43-.25,2.86-.44,4.28-.31,2.38-.73,4.75-.98,7.14-.08.76.04,1.64.36,2.34,1.16,2.6.94,4.82-1.03,7.05-.95,1.08-1.78,2.02-3.18,2.48-.67.22-1.2.87-1.81,1.34l-.04-.05Z"/>
      <path d="m426.67,116.48c-.32.24-.61.46-.96.72-.08-.17-.21-.33-.17-.41,1.06-2.01.36-3.93-.22-5.9-.74-2.51-1.5-4.97-3.87-6.47-.58-.37-1.28-.69-1.95-.77-.93-.11-1.52-.36-1.55-1.4-.03-1,.23-2.3-.29-2.93-1.56-1.91-.69-4.38-1.91-6.42-.93-1.55-.87-3.69-1.25-5.56-.05-.24-.08-.49-.14-.73-.54-2.18-1.24-4.33-.88-6.66.09-.58-.15-1.33-.49-1.85-.51-.79-1.28-1.37-.27-2.38.21-.21-.26-1.08-.37-1.65-.31-1.62-.57-3.25-.9-4.86-.14-.69-.41-1.35-.62-2.03-.32-1.06-.69-2.11-.95-3.18-.28-1.15-.46-2.33-.69-3.49-.03-.15-.13-.32-.09-.43,1.37-3.05-1.38-4.48-2.64-6.42-.6-.92-1.81-1.46-2.78-2.12-1.81-1.22-2.11-5.24-.41-6.7,1.21-1.04,2.39-2.3,3.82-2.85,2.28-.87,4.76-1.25,7.17-1.76.32-.07.71.37,1.08.39.54.03,1.4.09,1.57-.2.9-1.47,2.12-.99,3.35-.79.41.07.86.02,1.27-.08,2.78-.66,5.53-1.42,8.33-2.01,1.42-.3,2.93-.57,4.34-.38,2.85.39,5.88-1.15,8.57.8.12.09.3.2.41.17,2.75-.83,5.19.96,7.87.92,1.01-.02,2.01.67,3.04.94.76.2,1.59.18,2.35.38,1.99.52,4.03.95,5.93,1.72,3.03,1.22,4.08,4.29,5.77,6.73.14.21.18.66.05.86-1.08,1.61-.48,3.35-.5,5.05,0,.39-.07.79-.15,1.18-.44,1.98-.81,3.98-1.38,5.92-.33,1.14-1,2.18-1.48,3.28-.26.6-.42,1.23-.66,1.84-.45,1.13-.96,2.23-1.38,3.37-.87,2.32-2.76,4.44-1.16,7.22.9,1.56,1.63,3.23,2.26,4.92.24.64,0,1.46,0,2.19,0,1.5-.01,3.01,0,4.51,0,2.22.08,4.44,0,6.65-.02.43-.55,1.03-.99,1.21-1.17.48-1.34,1.5-1.74,2.48-.77,1.86-1.71,3.64-2.52,5.48-.79,1.79-1.6,3.57-2.23,5.42-.52,1.52-1.31,2.72-2.63,3.69-1.46,1.08-2.71,2.45-4.18,3.52-3.26,2.36-6.53,4.73-9.94,6.86-1.73,1.08-3.71,1.87-5.8.4-.49-.34-1.36-.08-2.01-.27-.59-.17-1.34-.45-1.6-.92-.76-1.35-1.29-2.82-1.95-4.23-.45-.97-.96-1.92-1.49-2.97h.01Zm-.65-40.48c1.57-.16,2.16-1.19,2.47-2.57.11-.49.57-.91.87-1.36.42-.64,1.1-1.23,1.21-1.92.37-2.32.48-4.69.8-7.02.22-1.6.21-3.42,1.9-4.33,1.35-.72,2.8-1.29,4.26-1.72,1.07-.32,2.28-.56,3.36-.4,2.44.35,4.85.98,7.27,1.49.71.15,1.29,1.09,2.16.32.06-.06.43.17.61.31.64.51,1.25,1.05,1.87,1.58.15-.03.3-.05.45-.08.04-1.59.28-3.21.07-4.77-.23-1.69-1.43-3.02-2.32-4.45-.18-.29-.42-.66-.71-.75-1.65-.53-3.35-1.44-4.97-1.33-1.48.1-2.93-.44-4.57.2-1.47.57-3.61,1.21-5.28-.3-.06-.06-.19-.06-.29-.06-4.45-.13-8.86.07-13.14,1.52-2.05.69-2.47,1.39-1.79,3.47.62,1.93,1.28,3.84,1.86,5.78.14.45.07.97.06,1.45-.01.59-.17,1.2-.07,1.77.32,1.95.76,3.88,1.09,5.83.17.96.14,1.96.33,2.91.39,1.93.04,4.08,1.61,5.69.12.12,0,.43.08.62.12.35.29.69.44,1.03.3-.28.86-.55.86-.83,0-.61-.27-1.23-.49-2.08h0Zm19.73,14c-1.16.14-2.08.25-2.99.37-1.27.17-2.73.03-3.78.62-2.05,1.15-4.11,1.14-6.29.98-.49-.04-1.12.35-1.49.74-.16.17.08.9.32,1.24,1.92,2.68,4.04,5.22,5.08,8.44.23.71.72,1.53,1.33,1.89.85.5,1.61.74,1.57,1.99-.02.82.45,1.65.71,2.48.81-.25,1.98-.42,2.24-1.81.03-.15.3-.24.44-.38,1.09-1.05,2.33-1.98,3.22-3.18,2.54-3.41,4.24-7.22,4.92-11.44.08-.53-.05-1.09-.09-1.89-1.49,1.78-3.34,1.88-5.19-.07v.02Z"/>
      <path d="m983.8,104.79c-1.51-.21-2.83-.41-4.16-.58-.58-.07-1.17-.04-1.74-.14-.37-.06-.84-.15-1.06-.41-.69-.83-1.32-1.73-1.9-2.64-1.98-3.08-1.7-5.96.76-8.72.78-.88,1.45-1.87,2.27-2.71.2-.21.82-.11,1.22-.02.82.19,1.61.64,2.42.66.85.02,2.27-.13,2.45-.59.57-1.47,1.1-3.18.87-4.68-.28-1.8-1.09-3.47-.76-5.44.16-.97-.52-2.05-.61-3.1-.21-2.36-.25-4.73-.45-7.08-.14-1.73-.24-3.49-.68-5.15-.31-1.19-1.24-2.21-1.73-3.38-.28-.68-.36-1.5-.3-2.24.07-.98.27-1.98.59-2.9.23-.66.77-1.22,1.16-1.82.45-.7,1-1.37,1.32-2.12.8-1.86,1.51-3.76,2.22-5.65.65-1.74,2.32-2.26,3.77-2.59,1.03-.24,2.31.48,3.46.84,1.33.41,2.65.88,3.95,1.37.29.11.57.37.76.63.98,1.29,1.48,1.31,2.81.35,1.24-.89,2.81-1.42,3.83-2.49,1.76-1.84,4.3-1.42,6.27-2.64,1.97-1.23,4.11-2.33,6.32-2.99,2.25-.67,4.7-1,6.95.37.16.1.36.26.51.24,2.64-.44,4.06,1.14,5.36,3.07.98,1.45,2.1,2.81,3.11,4.24.3.43.69.99.65,1.45-.23,2.65,1.44,4.43,2.75,6.4.27.41.35.97.46,1.47.26,1.18.2,2.52.77,3.51,1.19,2.07,1.02,4.3,1.01,6.46,0,1.58.11,2.85,1.22,4.1,1.72,1.94,2.6,4.16,1.43,6.81-.45,1.02-.55,2.19-.85,3.28-.07.27-.23.69-.42.73-2.65.6-4.18,3.86-7.39,3.09-.13-.03-.31,0-.43.07-2.28,1.3-4.56,2.61-6.84,3.93-2,1.16-3.98,2.37-6.01,3.47-.59.32-1.34.33-2.02.49-2.36.55-2.78,1.74-1.26,3.51,1.15,1.35,2.69,2.39,2.41,4.61-.22,1.77,1.09,3.16,1.82,4.7.85,1.81,1.23,3.82.78,5.95-.43,2.03-1.46,3.93-1.34,6.08.01.22-.09.54-.26.68-1.57,1.28-1.68,3.19-2.18,4.93-.08.28-.2.59-.41.77-1.78,1.56-1.68,3.6-1.68,5.7,0,.93-.58,1.86-.88,2.79-.2.6-.38,1.2-.65,2.06-1.49.38-3.16,1.09-4.87,1.16-1.93.08-3.98-.12-5.8-.73-2.13-.71-4.18-1.82-6.05-3.08-1.38-.93-2.42-2.37-3.56-3.64-.64-.71-1.16-1.52-1.74-2.28-.09-.11-.17-.25-.28-.32-.71-.46-.79-1.05-.23-1.78-1.94-.94-2.46-2.69-2.52-4.66-.48.1-1.15.38-1.25.24-.26-.35-.26-.89-.38-1.35-.39-1.47-.54-3.06-1.23-4.37-1.33-2.51-1.68-5.15-1.74-7.89,0-.08-.11-.16-.02-.04h0Zm19.38-18.44c.48-.42.83-.87,1.29-1.1,1.92-.99,4.16-1.58,5.75-2.93,1.94-1.66,4.45-1.65,6.42-2.97,1-.67,2.02-1.31,3.04-1.95.71-.45,1.42-.9,2.13-1.35,1.17-.75,2.47-1.36,3.47-2.29,1.82-1.71,3.28-5.97,1.96-8.25-1.33-2.3-1.85-4.76-2.12-7.32-.04-.39-.11-.8-.27-1.15-.63-1.34-1.31-2.66-1.95-3.99-.06-.12-.09-.31-.04-.43.5-1.13-.39-1.64-1.09-1.95-2.22-.99-4.58-.58-6.69.18-2.53.92-4.88,2.33-7.29,3.55-1.08.55-2.51.91-3.11,1.81-.73,1.1-1.65,1.41-2.67,1.59-1.54.28-2.4,1.27-2.42,2.6-.04,1.95.25,3.93.57,5.86.23,1.36.97,2.53,1.11,4.03.14,1.51-.48,2.77-.48,4.17s-.44,2.69-.65,4.04c-.07.43-.07.89.02,1.31.37,1.89.77,3.77,1.16,5.63.59.28,1.21.58,1.88.9h-.02Zm-.21,18.87c.91,3.72,2.86,6.89,3.08,10.83,1.63-1.4,2.57-2.59,2.17-4.66-.29-1.52.04-3.18.19-4.77.09-.91-.83-2.84-1.51-2.65-1.35.39-3.21-.6-3.93,1.25Z"/>
      <path d="m1276.3,100.31c-.09-.12-.54-.44-.55-.77-.06-2.37-2.01-3.8-2.77-5.73-.91-2.33-3.11-3.25-4.42-5.09-.66-.92-1.99-1.38-3.06-1.96-.21-.12-.73.05-.93.25-.83.82-.15,4.17,1.04,4.88-1.23.93-1.89,2.08-2.18,3.64-.18.99-.65,2.48-2.3,2.51-.2,0-.42.21-.6.37-.26.23-.47.71-.72.73-1.9.13-2.69,2.14-4.43,2.55-.35.08-.8.65-.83,1.02-.18,1.79-.24,3.6-.33,5.4-.06,1.22.05,2.47-.19,3.65-.45,2.17-.18,4.22.38,6.32.2.76-.26,1.68-.1,2.46.41,1.98,1.01,3.92,1.51,5.89.41,1.62.85,3.18.32,4.94-.29.97.19,2.18.28,2.9-.77.68-1.34,1.21-1.94,1.72-.55.46-1.1.93-1.69,1.32-.52.35-1.14.54-1.66.9-1.08.75-3.52.58-4.53-.34-.21-.19-.5-.31-.77-.41-2.33-.86-3.19-2.25-3.24-4.67-.02-1-.64-1.98-.75-3-.21-2.09-.32-4.19-.36-6.3-.05-2.46.03-4.93,0-7.39,0-.4-.33-.79-.45-1.2-.13-.45-.45-1.11-.26-1.36.94-1.24,0-2.01-.16-2.9,0-1.24.11-2.49-.02-3.72-.36-3.46-.44-6.88.34-10.3.41-1.79.63-3.62,1.03-5.41.11-.5.53-.93.81-1.39.25-.4.52-.78.75-1.19.12-.21.13-.61.28-.67,1.42-.5,2.12-1.63,2.78-2.89,1.02-1.96,2.73-3.41,4.07-5.11.6-.76.83-2.19.33-3.72-.6-1.84-.04-4.06.05-6.11.03-.64.18-1.27.26-1.91.16-1.33.49-2.43,2.22-2.39.78.02.98-.43.99-1.38.01-1.94.49-3.87.72-5.81.07-.61.17-1.31-.04-1.86-1.04-2.72-1.53-5.58-1.92-8.41-.15-1.07.8-2.3,1.3-3.43.19-.43.84-.89.76-1.18-.6-2.1,1.16-2.18,2.28-2.77.95-.5,1.95-.93,2.87-1.36,1.48.48,3.06.92,4.56,1.53,1.07.43,2.05,1.11,3.06,1.68,1.21.68,3.06.46,3.15,2.35.81-.36,1.44-.65,2.08-.94.08.14.16.28.25.42-.15.24-.24.61-.45.71-1.33.6-1.16,2.04-1.74,2.92-.91,1.37-.47,2.77-1,4.05-.09.23-.1.55-.26.68-1.98,1.61-1.99,3.85-2.17,6.12-.09,1.11-.91,2.14-1.13,3.27-.32,1.62-.95,3.48-.46,4.89.97,2.75,1.42,6,4.57,7.5.34.16.7.43.9.75.81,1.29,1.97,1.58,3.37,1.33,1.46-.26,2.38.51,3.18,1.6.31.43.72.8,1.12,1.16,1.74,1.56,3.41,3.11,4.25,5.46.35.98,1.52,1.96,2.55,2.37,4.6,1.82,9.04,4.13,14.04,4.79,2.44.32,4.86,1,7.31,1.11,2.47.11,4.96-.28,7.45-.46.1,0,.2-.1.28-.08,2.02.36,4.03.32,6.06.05.23-.03.59.18.75.39,1.37,1.76,2.78,3.49,4.02,5.34.36.53.17,1.43.24,2.15.15,1.52.31,3.04.44,4.57.02.28-.04.59-.14.86-1.11,3.11-2.52,6.15-3.25,9.34-.42,1.83-1.45,3-2.37,4.43-1.33,2.06-2.25,4.39-3.34,6.6-.11.22-.2.53-.39.62-1.72.84-3.13,2.2-5.2,2.47-2.55.33-5.05,1.1-7.58,1.62-1.47.3-2.8.69-4.43-.17-1.41-.75-3.37-.39-5.03-.78-1.28-.3-2.46-.99-3.67-1.53-.15-.07-.2-.45-.32-.47-2.07-.27-4.14-.47-6.2-.75-.42-.06-.86-.29-1.19-.57-.49-.41-.85-.96-1.32-1.4-1.01-.92-1.97-1.73-2.11-3.34-.19-2.35-.76-4.67-1.2-6.99-.4-2.13-.58-4.35-1.35-6.34-.84-2.18-.49-4.69-2.07-6.65-.21-.26.34-1.13.6-1.92l-.03-.06Zm9.88-4.79c1.02.57,1.89.98,2.66,1.53.35.24.67.74.71,1.15.14,1.6.06,3.21.24,4.8.12,1.04.46,2.09.89,3.05.62,1.36,1.61,2.57,2.08,3.96.52,1.53.5,3.24.99,4.78.34,1.06.91,2.38,1.78,2.86,1.05.58,2.52.49,3.81.5,1.22,0,2.44-.24,3.66-.35,2.41-.23,4.79-.17,6.53-2.53,1.38-1.87,2.3-3.9,3-6.01.61-1.84.67-3.85.96-5.79.14-.95.48-1.94.34-2.86-.19-1.26.01-2.85-1.4-3.58-1.12-.58-2.35-1.11-3.59-1.31-1.97-.32-3.83-1.01-5.96-.97-2.3.04-4.63-1.06-6.94-1.67-1.23-.32-2.45-.7-3.69-.99-2.3-.53-4.62-1-6.92-1.5-.14.17-.27.34-.41.51.54,1.21,1.08,2.42,1.7,3.81.04-.06-.16.21-.44.6h0Z"/>
      <path d="m284.58,121.67c-.32-1.19-1.17-1.32-2.2-.92-.65.25-1.26.61-1.92.83-.38.13-1.03.27-1.22.07-.94-1-1.76-.68-2.54.11-1.18,1.18-2.55.13-3.8.39-2.09.43-4.19.6-6.33.37-.28-.03-.81.56-.92.94-.66,2.37-2.36,4.03-4,5.64-1.02,1.01-2.51,1.53-3.75,2.34-.95.62-1.89,1.28-2.73,2.05-1.58,1.43-3.47,2.08-5.45,2.77-1.76.62-3.35,1.79-4.92,2.86-1.58,1.07-3.24,1.35-5.09,1.19-1.32-.11-2.67.08-3.99,0-.55-.03-1.14-.33-1.61-.65-1.31-.89-2.6-1.83-3.84-2.82-.41-.32-.71-.82-.94-1.3-.71-1.47-1.47-2.94-1.97-4.48-.21-.65.1-1.52.3-2.25.48-1.69,1.36-3.34,1.48-5.04.17-2.35-.14-4.75-.35-7.11-.17-2.02-.49-4.03-.73-6.04-.02-.15-.03-.33.04-.44,2.1-3.52,0-7.45,1.08-11.07.18-.6.34-1.2.46-1.81.17-.87.81-1.67,0-2.65-.31-.37.03-1.29.08-1.96.02-.24.18-.52.11-.71-.87-2.12.06-4.01.88-5.81,1.54-3.36,3.22-6.67,5.05-9.89.48-.85,1.67-1.34,2.58-1.91.96-.6,2-1.09,2.99-1.66.78-.44,1.34-1.1,2.49-.43,1.04.61,3.06-1.89,2.63-3.22-.57-1.74-1.24-3.45-1.83-5.18-1.05-3.09-2.09-6.18-3.1-9.29-.42-1.29-.77-2.6-1.1-3.91-.35-1.38.45-2.42,1.84-2.79,1.42-.38,2.79-.97,4.19-1.44,1.73-.58,3.03-.22,4.55,1.06,2,1.69,2.67,3.63,2.98,6.05.25,1.94,1.05,3.8,1.58,5.7.65,2.36,1.28,4.73,1.87,7.1.27,1.08,1.37,1.82,2.46,1.77.7-.03,1.5.12,2.1.46,1.43.8,3.56-.39,4.53,1.62,3.61.57,2.78,3.8,3.46,6.01.75,2.43.97,5.02,1.49,7.53.32,1.51.74,3,1.2,4.47.38,1.21.47,2.28-.05,3.57-.68,1.69-.6,3.71-1.37,5.33-.87,1.81-.2,3.69-.69,5.31-.5,1.66-.23,3.02-.09,4.57.18,2.04,1.63,2.36,3.24,2.96-.06-.63-.1-1.08-.13-1.37.74.29,1.52.89,2.22.8.71-.09,1.34-.85,1.99-1.34.19-.14.26-.49.46-.56,2.18-.78,2.36-2.87,3.21-4.59.71-1.43,1.85-2.76,3.08-3.81,1.15-.99,2.69-1.46,2.57-3.44-.04-.6.59-1.22.81-1.87.26-.77.57-1.58.57-2.38,0-1.51.84-2.96,2.23-3.66.74-.37,1.35-1.06,2.11-1.33.49-.18,1.42-.09,1.71.26,2.22,2.62,3.67,5.86,2.7,9.08-1.08,3.6-2.01,7.33-4.11,10.66-1.49,2.37-2.28,5.26-2.95,8.03-.61,2.53-1.89,4.4-3.9,5.91-.54.41-1.07.85-1.7,1.34v-.02Zm-32.27-19.69c.15-.04.29-.08.44-.11-.04-.86-.09-1.71-.14-2.57-.06-1.13,0-2.29-.22-3.4-.56-3-1.21-5.99-1.87-8.97-.2-.92-.53-1.81-.75-2.55-1.23.15-2.12.2-2.97.38-.4.09-.82.36-1.09.68-2,2.26-3.22,4.86-3.33,7.93-.02.48-.23.94-.33,1.42-.39,1.78-.86,3.54-1.13,5.34-.21,1.39-.16,2.81-.24,4.22-.15,2.66-.32,5.32-.47,7.98,0,.25-.04.54.08.74,1.04,1.7.09,3.5.18,5.24.14,2.84.63,5.55,1.5,8.22.1.31.69.74.96.68,1.03-.2,2.08-.47,3.03-.91,2.71-1.26,5-2.92,5.98-6,.43-1.36,1.35-2.56,1.96-3.88.19-.41.16-.96.13-1.45-.08-1.42-.22-2.85-.31-4.27-.05-.83-.05-1.67-.09-2.5-.09-1.84-.19-3.68-.28-5.57-.31-.19-.67-.42-1.04-.65h0Z"/>
      <path d="m1050.43,71.26c-.55,0-1.19.03-1.83,0-1.15-.07-2.13-.14-2.64-1.62-.32-.95-1.72-1.48-2.25-2.42-.94-1.66-1.36-3.46-.22-5.33.31-.5.21-1.26.26-1.9.12-1.58.42-3.18.29-4.73-.18-2.05-.73-4.07-1.1-6.11-.32-1.78-.82-3.55-.86-5.34-.04-1.61.44-3.2-.48-4.77-.3-.52-.02-1.36-.06-2.05-.07-1.26-.03-2.55-.31-3.77-.45-1.98-1.08-3.8-.49-5.99.48-1.78-.29-4.04,1.03-5.52,1.44-1.61.86-3.58,1.61-5.26.44-.98.69-2.07.88-3.13.17-.95-.07-2.01.24-2.89.51-1.42,1.02-3.08,2.08-4,1.54-1.33,3.52-2.26,5.78-1.63.24.07.56.23.71.14,1.31-.81,2.24.06,3.03.81.75.71,1.41,1.63,1.79,2.59,1.41,3.52.62,6.72-1.73,9.61-.99,1.21-1.35,2.52-1.2,4.15.12,1.25-.43,2.55-.62,3.84-.45,3.17-1.72,6.18-1.29,9.52.52,3.94,1.04,7.87,1.95,11.75.43,1.84.39,3.8.63,5.69.06.49.43.94.54,1.43.18.79.28,1.6.38,2.4.08.68,0,1.4.21,2.03.41,1.26,1.28,1.35,2.23.46,1.19-1.12,1.9-2.44,2.49-3.96.49-1.27,1.45-2.35,2.21-3.51.05-.08.18-.15.19-.23.39-3.48,3.64-4.56,5.68-6.63,1.03-1.04,2.29-1.86,3.42-2.81.84-.7,1.78-.73,2.82-.91,2.02-.35,3.93-1.31,5.89-2.03,1.99-.73,3.98-1.49,5.98-2.22.14-.05.33-.09.44-.04,1.62.78,3.29-.21,4.9.11,2.38.48,5.01.98,6.09,3.39.92,2.04,2.39,4.26.94,6.7-.27.45-.8.85-1.3,1.04-2.17.83-4.37.89-6.6.17-.47-.15-1.14-.14-1.57.08-3.13,1.61-6.34,3.11-9.28,5.01-1.58,1.02-2.69,2.77-4.01,4.2-.43.47-.79,1.06-1.3,1.41-3,2.05-5.09,4.84-6.77,8-.34.65-.77,1.25-1.22,1.84-.86,1.12-1.04,2.34-.61,3.67.03.09.1.22.06.29-1.29,2.33-.03,4.8-.42,7.22-.43,2.61-.8,5.38.89,7.83.15.22.22.59.15.84-.8,2.93-.03,5.8.44,8.64.33,1.97.62,4.18,1.7,5.75,1.96,2.83.44,6.09,1.69,8.93.49,1.1.54,2.38.82,3.58.28,1.19.58,2.38.9,3.57.13.47.2,1.08.53,1.36,2.17,1.85,2.8,4.33,3.2,6.98.4,2.61.06,5.08-1.04,7.46-.29.63-.66.89-1.52,1.03-2.74.43-4.9-.86-7.17-1.94-.27-.13-.63-.39-.82-.3-1.7.76-2.5-.46-3.24-1.52-1.04-1.48-1.64-3.11-1.65-5.02,0-2.32-.33-4.63-.46-6.95-.06-1.1.41-2.29-.76-3.13-.14-.1-.12-.59-.02-.84,1.15-2.84-.7-4.94-1.75-7.25-.42-.91-.84-1.84-1.05-2.8-.78-3.6-.49-7.34-1.79-10.94-.73-2.04-1.4-4.02-2.62-5.8-.18-.26-.13-.67-.2-1-.46-2.35.17-4.74-.24-7.08-.47-2.71-1.04-5.41-1.65-8.1-.16-.71-.63-1.35-.98-2.06h.05Z"/>
      <path d="m493.44,61.9c1.37-2.05,3.95-2.63,4.35-5.21.04-.23.15-.53.33-.64,2.82-1.69,3.82-4.75,5.46-7.31.65-1.01.96-2.22,1.58-3.25.47-.8,1.18-1.46,1.78-2.19.55-.68,1.08-1.38,1.64-2.06.15-.18.33-.44.53-.47,1.01-.18,2.04-.49,3.03-.4,1.52.14,3.29.18,4.43.99,1.35.97,2.67,2.58,3.07,4.16.76,2.96,1.4,5.91,2.71,8.71.97,2.07,1.97,4.22,2.35,6.44.29,1.71,1.43,3.07,1.5,4.79.03.78.12,1.56.21,2.34.24,2.07.4,4.16.8,6.19.31,1.6,1.19,3.1,1.38,4.7.44,3.74,2.15,7.28,1.76,11.16-.08.78.38,1.61.56,2.42.57,2.55.47,5.04-.34,7.56-.59,1.83-.78,3.78-1.15,5.68-.06.29-.03.63-.17.86-1.47,2.32-2.99,4.62-4.45,6.94-.44.71-.77,1.49-1.2,2.18-.99,1.47-2,2.92-2.97,4.4-.56.86-.89,1.92-1.6,2.61-1.29,1.25-2.75,2.31-3.25,4.16-.05.18-.2.39-.36.46-2.5,1.11-3.52,3.41-4.72,5.62-1.34,2.48-3.13,4.34-6.19,4.95-2.57.52-4.99,1.76-7.5,2.63-.51.18-1.11.12-1.67.12-1.31-.02-2.63-.15-3.94-.08-2.34.12-4.67.37-7,.55-.4.03-.83-.08-1.19.04-3.92,1.27-6.67-.64-9.17-3.29-1.07-1.13-2.25-2.17-2.06-4,.04-.34-.56-1.04-.91-1.07-1.85-.18-1.68-1.62-1.92-2.82-.05-.24-.07-.48-.14-.91,1.16.4,1.7,0,1.9-1.13.15-.84.4-2.04.99-2.34,1.54-.79,3.11-.77,4.42.87.8,1,2.07,1.61,3.01,2.51,1.21,1.17,2.63.82,4.04.82.44,0,.89.28,1.46.48,2.53-.43,5.34-.72,8.05-1.42,2.03-.53,3.94-1.52,5.85-2.44.55-.26.89-.96,1.43-1.56,2.52.09,4.11-1.95,5.86-3.5,1.28-1.13,2.76-2.34,2.88-4.37.01-.26.43-.54.71-.73,2.53-1.7,4.01-4.23,5.47-6.79.57-1,.35-2.5,1.85-2.93.14-.04.25-.44.25-.67.02-2.29.64-4.41,1.68-6.43.09-.17.11-.39.11-.59-.05-2.78-.06-5.56-.19-8.33-.08-1.73-.3-3.45-.52-5.16-.09-.72-.24-1.46-.51-2.13-1.11-2.75-.95-5.74-1.64-8.56-.37-1.51-.99-2.96-1.48-4.43-.16-.47-.3-.94-.43-1.42-.68-2.54-1.28-5.1-2.06-7.6-.21-.67-.94-1.18-1.49-1.83-1.59,2.11-3.05,4-4.45,5.92-1.23,1.68-2.37,3.43-3.6,5.11-1.75,2.41-2.78,5.14-3.88,7.88-.58,1.45-1.92,2.81-3.26,3.69-1.47.96-3.13.61-4.75-.46-1.2-.79-2.86-.87-4.26-1.4-1.14-.43-2.35-.9-2.35-2.5,0-.2-.32-.51-.55-.59-1.26-.47-1.48-1.48-1.51-2.62,1.47-.4,2.09-2.25,1.56-3.63-.91-2.39-1.47-4.93-2.43-7.3-1.05-2.58-2.4-5.04-3.62-7.55-.02-.04-.06-.1-.1-.11-1.33-.31-2.54-.65-2.16-2.51.23-1.17.18-2.39.31-3.59.07-.59.19-1.2.42-1.74.52-1.21.88-2.59,2.58-2.74.32-.03.62-.3.93-.46.54-.29,1.1-.87,1.61-.83,1.61.11,3.27.27,4.55,1.5.92.88,1.89,1.71,2.84,2.56.04.03.11.07.11.09-.25,2.34,2.42,3.78,1.92,6.2-.05.23.02.5.09.73.49,1.61.95,3.24,1.51,4.83.24.68.7,1.28,1.26,2.26l.02-.02Z"/>
      <path d="m180.91,53.67c.61-.24,1.29-.39,1.83-.75,1.53-1.02,3.46-1.06,5-.03.28.19.61.33.94.41,2.28.54,3.93,2.58,4.54,4.78.4,1.44,1.45,2.74,2.35,4.01,1.23,1.74,2.59,3.39,3.89,5.07,1.01,1.31,1.91,2.73,3.07,3.89.63.63,1.68.88,2.58,1.22,1.39.52,2.93.78,4.18,1.53.83.5,1.27,1.65,1.9,2.5.18.24.41.64.6.63,2.13-.1,1.24,1.22,1,2.15-.52,2.05-1.11,4.08-1.66,6.12-.05.19-.14.39-.11.58.32,2.72.63,5.44.99,8.16.08.63.39,1.23.51,1.86.15.77.5,1.68.23,2.31-.67,1.58-.21,3.01.11,4.5.11.53.29,1.12.18,1.62-.31,1.37.23,2.43.97,3.48.26.36.78.94.68,1.1-1.06,1.61.42,3.19-.03,4.78-.14.5-.19,1.15,0,1.59,1.96,4.27,2.99,9.04,6.7,12.38,1.57,1.41,1.42,3.27,1.08,5.12-.19,1.07-.42,2.14-.7,3.19-.47,1.78-1.43,2.45-3.31,2.45-.83,0-1.66.15-2.49.14-4.22-.04-6.21-2.91-7.88-6.2-.2-.4-.45-.78-.73-1.12-.69-.83-1.38-1.53-1.53-2.78-.13-1.02-1.23-1.88-1.6-2.92-.8-2.26-1.4-4.58-2.08-6.89-.7-2.4-1.46-4.78-2.07-7.2-.25-.98-.45-2.11-.2-3.05.92-3.42-.17-6.34-1.88-9.18-.33-.54-.55-1.16-.81-1.74-.89-2.02-2.41-2.37-4.19-1.09-1.19.86-2.57,1.46-3.73,2.35-1.28.98-2.4,2.17-3.63,3.23-.5.43-1.18.66-1.67,1.1-.58.53-1.23,1.11-1.52,1.81-.81,1.92-1.26,4.01-2.19,5.87-1.24,2.48-1.24,5.09-1.41,7.71-.13,2.01.26,3.97.45,5.95.2,2.09-.59,4.28-1.02,6.41-.31,1.54-.9,2.28-2.87,2.61-3.42.57-6.01-.67-8.64-2.3-.35-.22-.45-.85-.65-1.29-.51-1.12-1.45-2.25-1.42-3.35.03-1.44.81-2.88,1.28-4.31.26-.82.6-1.62.78-2.45.77-3.56,1.4-7.16,2.28-10.7.52-2.08.22-3.59-1.4-4.49-2.22-1.23-2.67-3.21-1.26-5.39,1.08-1.67,2.09-3.38,3.2-5.02.27-.4.81-.68,1.28-.85.96-.35,1.67-.75,1.95-1.92.58-2.46,1.38-4.86,2.06-7.3.19-.69.48-1.45.38-2.12-.25-1.78,1.34-3.51.09-5.3-.06-.09.08-.34.15-.51.24-.56.77-1.15.69-1.66-.2-1.33.44-2.07,1.12-3.12.91-1.41,1.07-3.34,1.4-5.07.11-.58-.24-1.26-.37-1.89-.05-.24-.19-.59-.08-.73,1.37-1.75.32-3.85.85-5.71.42-1.48.83-2.96,1.25-4.44.19.1.38.2.56.29l.02-.03Zm4.48,34.04c3.24-1.95,6.1-3.84,8.11-6.82.8-1.18.69-2.18-.05-3.11-1.05-1.31-2.24-2.52-3.48-3.66-.22-.21-1.25-.02-1.39.25-.55,1.04-.97,2.16-1.28,3.29-.69,2.5-1.32,5.03-1.88,7.56-.16.72-.02,1.51-.02,2.5h0Z"/>
      <path d="m914.21,73.35c-.63.22-1.4.28-1.87.7-1.38,1.19-3.01,1.05-4.64,1.17-.61.04-1.2.4-1.8.6-.22.07-.46.13-.69.11-2.16-.21-4.22.99-5.23,2.95-.35.67-.72,1.27-1.87,1.3-.81.02-1.62,1.26-2.39,2-.42.4-.76.88-1.12,1.34-.21.26-.6.61-.55.83.42,1.65-.88,2.75-1.27,4.13-.24.91-.69,1.86-.6,2.74.26,2.55-1.34,4.4-2.27,6.48-.39.86-1.36,1.45-2.04,2.14-.19,2.11-.56,4.37-.55,6.63.01,1.96.45,3.91.74,5.86.16,1.08.39,2.16.61,3.22.23,1.07.56,2.11.75,3.19.15.83.38,1.77.15,2.52-.42,1.33-.31,2.33.62,3.43,1,1.18,2.06,2.31,1.97,4.18-.06,1.24.78,2.51,1.02,3.81.13.69-.06,1.5-.3,2.19-.19.54-.73.95-1.03,1.46-.59,1.04-1.25,1.66-2.51.9-.27-.16-.84-.18-1.09,0-2.34,1.65-5.1,1.6-7.25-.13-.44-.36-1.08-.49-1.54-.83-.84-.62-2.01-1.15-2.34-2-.73-1.85-1.51-3.87-.13-5.84.1-.15.06-.44,0-.64-.21-.91-.94-2.11-.61-2.67,1.04-1.73-.98-3.22-.09-4.82.1-.18.12-.56-.01-.71-1.29-1.57-.64-3.53-1.04-5.28-.24-1.03,0-2.17-.1-3.24-.1-1.22-.29-2.42-.47-3.63-.12-.78-.46-1.55-.43-2.32.07-2.42.27-4.83.42-7.25.01-.15.06-.33,0-.44-1.11-1.66-2.17-3.36-3.4-4.93-.38-.48-.86-.6-.53-1.4.18-.43-.23-1.1-.4-1.84,1.74-.7,2.14-2.22,1.99-4.12-.04-.53.55-1.2,1.01-1.66.5-.51,1.15-.86,1.85-1.35-.54-.54-.89-.96-1.3-1.29-1.51-1.21-2.66-2.68-3.13-4.55-.19-.75.27-1.64.15-2.42-.24-1.6.3-2.85,1.16-4.15,1.46-2.19,3-4.39,4.06-6.77,1.22-2.76,1.86-5.69,1.36-8.83-.43-2.69-.38-5.45-.62-8.18-.1-1.25-.62-2.45-.14-3.76.15-.4-.24-1.04-.47-1.52-.94-1.89-.82-2.8.63-4.41.64-.71,1.21-1.57,2.01-2.04.66-.38,1.61-.29,2.43-.4.75-.11,1.5-.21,2.25-.32,3.18-.44,3.9.23,4.95,3.3.62,1.82.93,3.76,1.19,5.67.13.99-.27,2.03-.26,3.05,0,.94.05,1.96.41,2.81.57,1.33.8,2.57.61,4.04-.23,1.85-.32,3.78.52,5.59.11.24-.18.68-.31,1.02-.42,1.2-.85,2.41-1.26,3.61-.3.88-.64,1.75-.83,2.65-.12.55,0,1.15.02,1.72.39-.14.82-.46,1.17-.39,1.79.37,2.35-1.4,3.58-1.96.84-.37,1.78-.65,2.69-.67,1.11-.03,2.2.47,3.37-.05.39-.17,1.11.57,1.66.53,1.46-.11,2.91-.4,4.36-.64.29-.05.68-.32.83-.21,1.89,1.32,3.98-.74,5.88.37.2.11.71-.08.95-.29,1.34-1.17,3.11-1.51,4.65-1.54,2.88-.03,5.22,2.67,4.43,5.72-.78,2.99-2.89,4.32-5.8,4.8-.73.12-1.4.56-2.1.85-.02,0-.04-.03-.06-.04v-.02Z"/>
      <path d="m1185.14,92.57c.79.78,1.45.55,1.94-.75.78-2.06,1.58-4.12,2.5-6.12.56-1.21,1.38-2.3,2.03-3.48.86-1.55,2.04-3.04,2.39-4.7.54-2.59,1.99-5.12,1.06-7.93-.15-.45-.09-.99-.05-1.48.1-1.29.31-2.58.31-3.87,0-.38-.58-.76-.99-1.26.4-.5.87-1.09.13-2.12-.4-.56-.2-1.82.15-2.56.68-1.41,1.5-2.83,2.58-3.95,1.22-1.27,2.52-2.6,4.72-2.11,2.85.62,5.64,1.11,6.77,4.38.37,1.06.93,2.09,1.58,3.02,1.09,1.56-.09,3.23.39,4.8.38,1.26.67,2.55.99,3.83.15.61.47,1.26.39,1.84-.43,3.16,1.07,5.88,1.81,8.78.4,1.6.58,3.26.69,4.91.07,1.12-.19,2.22.7,3.19.35.37.62,1.02.58,1.51-.22,2.85,1.73,4.79,2.82,7.09.15.31.35.62.38.95.23,2.09.28,4.2.66,6.26.35,1.86,1.09,3.64,1.57,5.48.36,1.38.51,2.81.88,4.19.29,1.09.8,2.11,1.16,3.18.58,1.73,1.01,3.52,1.69,5.21.46,1.13,1.28,2.11,1.86,3.2.36.66.6,1.39.87,2.11.38,1.05.92,2.08,1.06,3.16.16,1.23.31,2.65-.16,3.72-.68,1.55-1.78,3-2.99,4.22-.59.59-1.82.74-2.77.75-2.04.02-3.78-.93-5.55-1.91-2.31-1.28-2.08-3.94-3.39-5.77-.65-.91-.04-2.65-.26-3.97-.24-1.42-1.03-2.76-1.16-4.17-.19-2.03-1.26-3.97-1.08-5.91.18-1.87-.45-2.91-1.92-3.92.31-.24.55-.43.81-.63-.83-1.46-1.99-2.52-3.27-3.66-2.27-2.03-5.09-1.38-7.45-2.53-.54-.26-1.44.2-2.18.33-.44.08-.97.36-1.3.2-1.71-.81-2.38.38-3.02,1.51-.67,1.19-1.18,2.46-1.79,3.68-1.27,2.56-2.51,5.13-3.88,7.63-.23.42-1.02.54-1.55.8-2.76,1.32-5.59,1.42-8.48.52-.24-.07-.49-.18-.73-.15-1.71.21-2.08-.97-2.4-2.24-.12-.48-.29-.94-.39-1.43-.34-1.75-.8-3.5-.89-5.26-.04-.73.61-1.67,1.21-2.2,1.14-1,2.51-1.73,3.7-2.68.55-.44.91-1.12,1.32-1.72.51-.74,1.2-1.44,1.41-2.26.28-1.1.55-2.44.16-3.41-.62-1.56-.12-2.84.37-4.16.16-.43.84-.71,1.33-.96.77-.39,1.58-.71,2.65-1.18h.03Zm17.71-4.21c-.17.03-.34.07-.51.1-.72,1.55-1.47,3.08-2.11,4.66-.11.26.3,1.05.46,1.05,1.19-.01,2.39-.15,3.58-.29.1-.01.27-.36.23-.49-.53-1.68-1.09-3.35-1.64-5.02h0Z"/>
      <path d="m1116.74,109.41c.98-.29,1.36-.59,1.24-1.77-.13-1.25,1.48-1.41,2.41-1.29,1.32.16,2.72.23,3.84,1.34,1.37,1.35,3.33.94,5.04,1.28,2.01.41,3.15-.43,4.25-2.1,1.17-1.79,2.86-3.24,4.25-4.9.73-.87,1.3-1.86,1.93-2.81.17-.25.24-.63.46-.76,1.55-.88,1.65-2.19,1.55-3.82-.05-.74.86-1.6,1.44-2.3,1.22-1.46,1.51-3.03.87-4.81-.08-.22-.05-.49-.03-.73.11-1.52.29-3.05.33-4.57.03-1.23-.09-2.46-.15-3.69-.07.06-.44.2-.54.45-.94,2.23-2.68,3.75-4.5,5.22-.11.09-.29.2-.3.32-.2,2.22-2.13,1.95-3.52,2.51-1.1.44-2.07,1.19-3.13,1.74-.49.26-1.06.53-1.59.52-1.98-.05-4.11.22-5.88-.45-2.43-.92-5.62-.8-6.86-3.89-.05-.13-.17-.27-.29-.34-3.47-2.03-4.27-5.73-5.75-9.03-1.04-2.31-2.32-4.52-3.5-6.77-.09-.16-.27-.3-.44-.4-2.64-1.48-3.48-4.17-4.43-6.72-.3-.8-.01-1.84.12-2.76.19-1.28.67-2.55.7-3.83.04-1.89.07-1.99,1.98-2.44.62-.15,1.24-.7,1.66-1.22.64-.81,1.05-1.79,1.69-2.61.19-.24.9-.36,1.17-.19.58.36,1.01.95,1.53,1.42.66.59,1.13,1.47,2.32,1.16.27-.07,1.04.6,1.07.97.13,1.38,1.31,1.78,2.07,2.58.37.4.7.96.78,1.48.26,1.7,0,3.6.69,5.07,1.15,2.46,1.4,5.28,3.2,7.49.57.7.56,1.85.98,2.71.53,1.11,1.22,2.14,1.74,3.03,1.01.33,1.91.62,2.81.92,1.01.17,1.9-.19,2.19-1.45.08-.36.55-.67.9-.91,1.62-1.07,2.69-2.43,3.29-4.36.67-2.16,1.58-4.33,3.65-5.7.36-.24.52-.82.68-1.27.6-1.66.97-3.45,1.82-4.97.42-.76,1.7-1.05,2.59-1.54,1.42-.78,2.85-1.56,4.56-1,.32.1.68.19.94.39,1.08.82,2.16,1.66,3.19,2.54.51.44,1.17.93,1.34,1.52.68,2.32,2.35,4.32,2.29,6.87,0,.15-.03.36.05.43,1.76,1.53,1.24,3.75,1.56,5.65.29,1.76-.18,3.64-.19,5.47,0,.95.33,1.9.36,2.85.04,1.14-.11,2.29-.14,3.44-.02.64,0,1.28.06,1.92.1,1.16.32,2.22-.18,3.47-.48,1.2-.74,3.39-.07,3.98,1.74,1.51.95,2.55.12,3.86-.09.14-.04.39-.03.59.21,2.36-1.17,3.61-2.89,5.04-1.67,1.39-3.11,3.4-3.89,5.43-.85,2.2-2.37,3.43-4.13,4.59-.73.48-1.63.57-1.68,1.79-.02.48-.76,1.01-1.28,1.37-1.83,1.3-3.7,2.53-5.55,3.81-1.46,1.01-2.94,1.36-4.81,1.42-1.75.05-3.17-.82-4.84-.8-1.03,0-2.11-.87-3.09-1.47-1.41-.86-2.83-1.75-4.11-2.78-.76-.61-1.79-1.52-1.8-2.31-.02-1.73-1.06-2.69-2.15-3.88h.03Z"/>
      <path d="m607.18,61.04c1.25.19,2.49.45,3.75.55,2.97.24,5.87.67,8.47,2.24,1.3.78,2.73,1.44,3.81,2.46,1.16,1.1,1.98,2.55,2.96,3.85-1.12,1.94.87,2.47,1.62,3.57.35.53.57,1.14.86,1.71,1.75,3.44,3.28,6.93,3.66,10.86.11,1.19.79,2.35,1.3,3.48.63,1.39-.19,2.54-.48,3.78-.25,1.04-.58,2.08-.68,3.14-.11,1.11-.01,2.13-.76,3.21-.81,1.17-.93,2.78-1.62,4.06-1.16,2.18-2.3,4.32-4.24,6.07-1.4,1.27-3.32,2.39-3.68,4.6-.01.09-.1.19-.19.23-1.91.96-2.82,3.02-4.33,4.18-1.75,1.35-3.2,3.17-5.26,4.11-.89.4-1.93.49-2.81.91-1.09.52-2.2,1.1-3.11,1.88-1.66,1.43-3.4,2.62-5.63,2.92-.25.03-.53.16-.73.09-2.09-.75-4.24-1.39-6.22-2.37-1.39-.68-2.55-1.83-3.81-2.77-.08-.06-.18-.15-.26-.14-2.05.36-2.92-1.54-4.38-2.3-1.81-.94-3.02-3.61-2.49-5.11.1-.28.19-.7.39-.77,1.82-.65,3.32-2.52,5.61-1.53.34.15.77.16,1.15.16.99-.01,1.98-.09,2.97-.11.96-.02,1.93,0,3.15,0-1.05-.88-2.08-1.55-2.87-2.44-.59-.67-1.1-1.58-1.24-2.45-.48-2.92-.95-5.87-1.08-8.82-.11-2.46.22-4.95.44-7.42.5-5.51,1.02-11.01,1.6-16.51.11-1,.61-1.95.85-2.94.21-.89.31-1.81.46-2.72.09-.53,0-1.18.28-1.56,1.42-1.87,2.9-3.69,4.44-5.46.28-.32.95-.32,1.44-.42.24-.05.53.07.73-.02,1.97-.91,3.92-1.85,5.88-2.78l.03.59h.02Zm-3.45,26.87c-.17,1.33-.41,2.28-.38,3.22.04,1.39.3,2.77.39,4.16.16,2.48.21,4.98.42,7.46.06.65.81,1.3.75,1.9-.28,2.59,1.99,3.6,3.13,5.29.13.19.81.25,1.03.09,1.41-1.05,2.9-2.04,4.1-3.31,1.66-1.76,3.33-3.6,4.52-5.67,1.22-2.12,2.65-4.46,1.86-7.08-.56-1.87,1.09-3.44,0-5.51-1.2-2.29-1.12-5.21-2.09-7.66-.84-2.1-1.61-4.45-3.74-5.76-1.29-.79-2.7-1.4-4.02-2.15-1.87-1.06-3.97-.28-4.15,1.88-.18,2.13-1.32,4.17-.64,6.38.08.27-.16.65-.29.97-.27.7-.72,1.37-.81,2.08-.15,1.32-.99,2.7-.08,3.71h0Z"/>
      <path d="m818.4,103.48c.75,1.98,1.37,4.03,2.29,5.94,1.14,2.36,2.52,4.59,3.79,6.88.36.65.61,1.38,1.05,1.96.55.73,1.2,1.4,1.89,1.99,1.17.99,2.39,1.92,3.63,2.82,1.48,1.08,2.8,2.25,3.78,3.87.37.62,1.58.79,2.43,1.08.99.33,1.97.37,2.77,1.41.43.56,2.08.63,2.96.31,2.02-.73,3.82-2.07,5.86-2.72,1.86-.6,2.98-1.66,3.92-3.26.61-1.04,1.65-.95,2.45-.06.22.24.49.47.79.6.95.43,1.41.87.89,2.07-.27.64-.05,1.7.32,2.37.76,1.38.53,2.52-.46,3.55-1.77,1.85-3.64,3.62-5.43,5.45-.58.59-1.05,1.29-1.46,1.8-.67.21-1.23.44-1.8.56-.62.13-1.25.15-1.88.21-.28.03-.7-.08-.82.06-1.07,1.27-2.26.84-3.56.47-.83-.24-1.76-.09-2.64-.16-.79-.06-1.6-.06-2.34-.29-1.8-.57-3.65-1.12-5.33-1.96-1.15-.58-2.01-1.71-3.08-2.49-.8-.59-1.53-1.48-2.79-1.06-.16.05-.56-.43-.78-.72-.8-1.05-1.44-2.24-2.37-3.16-1.51-1.5-3.34-2.7-4.77-4.27-1.21-1.33-2.05-3-3.03-4.54-.82-1.29-1.66-2.57-2.4-3.9-1.31-2.34-2.88-4.61-3.74-7.11-.8-2.36-1.23-4.97-.48-7.52.57-1.93,1.32-3.8,1.86-5.74.24-.86.36-1.89.12-2.72-.29-1.01-.05-1.7.45-2.5.31-.49.59-1.09.63-1.66.11-1.5,1.13-2.17,2.12-3.13,1.47-1.43,2.48-3.34,3.6-5.11.41-.64.58-1.24,1.57-1.31.62-.04,1.24-.71,1.77-1.2,2.51-2.3,5.12-4.41,8.49-5.36.49-.14.85-.66,1.33-.89,2.88-1.37,5.83-2.49,9.12-1.96.25.04.57,0,.73.14,1.92,1.79,4.69,2.07,6.54,4.32,1.59,1.93,1.62,3.44.98,5.44-.09.28.1.65.14.98.35,2.72,1.04,5.46.9,8.15-.08,1.62-.59,3.21-.6,4.97,0,1.73-1.58,3.43-2.37,5.19-.96,2.13-3.18,3-4.63,4.66-.63.72-2.37.52-3.62.61-.92.07-1.87,0-2.79-.11-1.9-.2-3.78-.51-5.68-.69-2.93-.27-5.56-2.25-8.69-1.52-.35.08-.86-.52-1.29-.81-.12.02-.24.04-.36.05l.02.02Zm6.84-20.52c0,.76-.12,1.54-1.35,2.03-1.97.79-2.15,2.56-.72,4.09.5.53.9,1.17,1.28,1.8.63,1.02,1.14,2.11,1.83,3.08.27.38.87.74,1.32.75,1.27.03,2.54-.12,3.81-.23.21-.02.51-.18.6-.36.77-1.7,2.26-3,2.4-5.07.12-1.68.72-3.33,1.14-4.99.32-1.27-.63-2.98-1.75-2.88-1.47.13-2.92.46-4.37.76-1.33.28-2.65.64-4.19,1.02h0Z"/>
      <path d="m783.56,81.29c0-.21-.14-.78.02-1.24.9-2.53,1.74-5.09,2.86-7.52,1.42-3.09,3.88-5.09,7.24-5.88,2.09-.49,5.39,1.75,5.47,3.86.08,1.85-.28,3.71-.31,5.56-.02,1.36.3,2.73.26,4.09-.04,1.72-.1,3.49-.52,5.15-.31,1.2-1.36,2.18-1.83,3.36-.56,1.4-.98,2.89-1.22,4.38-.24,1.53-.18,3.12-.25,4.68,0,.15,0,.32-.06.44-1.14,2.24-2.3,4.47-3.42,6.72-.29.59-.5,1.22-.72,1.85-.44,1.25-.88,2.51-1.29,3.78-.27.84-.75,1.72-.69,2.55.11,1.64-.57,2.98-1.47,4.12-.48.6-1.62.71-2.48.98-.56.17-1.2.1-1.72.33-1.22.55-2.35.71-3.54-.1-.32-.22-.85-.2-1.28-.17-2.76.16-4.26-.97-5.69-3.26-1.25-2-2.92-3.77-4.63-5.42-2.34-2.26-4.79-4.43-7.39-6.38-1.63-1.22-2.79-2.9-4.32-4.06-1.07-.82-1.93-2.65-3.85-2.14-.04.01-.12-.01-.14-.04-1.1-2.49-4.02-2.17-5.76-3.69-.48-.41-1.26-.69-1.89-.67-1.48.06-2.47-.58-3.27-1.72-.49-.69-1.03-1.34-1.51-2.04-.89-1.32-.34-4.27,1.08-4.95,1.26-.6,2.69-.88,4.04-1.29.19-.06.42.01.59-.07,3.9-1.95,6.86.75,10.08,2.06,1.12.45,2.49.94,3.1,1.84,1.28,1.91,3.73,1.55,5.12,3.12,1.13,1.28,2.25,2.68,3.66,3.57,3.12,1.96,4.99,5.37,8.46,6.9,1.51.67,2.12.38,2.49-1.23.51-2.2.34-4.6,1.83-6.56.28-.37.09-1.07.22-1.59.48-1.9,1.02-3.78,1.52-5.67.1-.38.14-.78.27-1.16.25-.74.54-1.47.91-2.47l.03-.02Z"/>
      <path d="m661.62,89.8c-.14.91-.32,1.47-.29,2.02.09,1.52.22,3.05.44,4.56.15,1.02.84,2.07.68,3-.56,3.29,1.11,6.18,1.42,9.31.17,1.68,1.02,3.3,1.64,5.17,1.48-.55,3.07-1.02,4.55-1.73,1.93-.91,3.79-1.97,5.63-3.06.55-.33,1.03-.93,1.3-1.52.4-.86.58-1.83.86-2.75.03-.09.06-.19.12-.27.66-.92,3.9-1.25,4.89-.57,1.83,1.25,3.75,2.38,5.53,3.7.41.31.62,1.23.53,1.8-.33,1.97-.82,3.91-1.31,5.85-.1.4-.44.74-.67,1.1-.33.51-.77.99-.98,1.54-.5,1.37-1.87,2.38-3.39,1.99-2.67-.68-4.56.91-6.59,2.04-2.06,1.15-3.95,2.6-6.01,3.77-.97.55-2.17.71-3.23,1.12-1,.39-1.94.97-2.96,1.32-1.3.44-2.64.98-3.97.99-.78,0-1.55-.95-2.34-1.46-.5-.32-.99-.74-1.55-.9-.98-.29-1.54-.66-1.43-1.86.14-1.52.21-3.11-.06-4.6-.24-1.32-1.02-2.54-1.5-3.82-.29-.79-.51-1.61-.65-2.43-.28-1.59-.51-3.18-.73-4.78-.29-2.14-.53-4.29-.82-6.43-.3-2.2-.6-4.4-.95-6.6-.56-3.57-1.14-7.14-1.75-10.7-.08-.47-.24-1.04-.57-1.32-.67-.55-.28-1.02-.26-1.64.04-1.6-.33-3.2-.5-4.81-.08-.76-.1-1.52-.12-2.28-.02-1.13.24-2.35-.08-3.38-.45-1.43.08-2.46,1.08-3.02,1.58-.88,2.59-2.92,4.64-2.71,1.32.14,2.79.59,3.8,1.4,1.32,1.07,2.32,2.58,3.31,4,.27.4.1,1.22-.06,1.78-.42,1.46-1.26,2.89-.04,4.36.03.04.05.09.05.14.26,2.66.36,5.35.82,7.98.25,1.39.18,3.14,1.52,3.69h0Z"/>
      <path d="m721.91,81.88c.68-.11,1.4-.43,2.03-.31,1.7.32,3.55.53,4.98,1.38.87.52.98,2.2,1.59,3.26.73,1.26.56,2.26-.25,3.43-.37.53-.44,1.52-.22,2.16.78,2.37-.6,4.58-.33,6.9.21,1.79.39,3.59.5,5.39.04.57-.21,1.15-.28,1.74-.32,2.72-.61,5.44-.93,8.16-.05.39-.01.88-.23,1.15-1.41,1.71-.92,3.95-1.73,5.83-.54,1.25-.33,2.44.79,3.31.7.54.75,1.02.42,1.88-.61,1.56-1.46,2.7-3.04,3.38-1.08.47-2.15,1.09-3.01,1.88-1.81,1.65-3.71,1.4-5.71.6-.32-.13-.61-.4-.94-.45-1.3-.2-2.97-.28-3.28-1.64-.34-1.51-.17-3.27.25-4.78.96-3.46,2.51-6.76,2.11-10.53-.15-1.43.33-2.89-.21-4.38-.22-.6,0-1.5.3-2.15,1.07-2.38,1.82-4.9,1.68-7.45-.14-2.5.08-5.26-2.28-7.19-.96-.78-.92-2.9-.29-3.97.65-1.1,1.02-2.41,1.82-3.37,1.22-1.47,2.63-2.79,4.1-4.02.49-.41,1.4-.33,2.11-.48.02.08.03.16.05.24v.03Z"/>
      <path d="m1373.09,120.69c-1-.05-2-.08-3-.17-5.25-.46-9.61-2.57-12.4-6.57.16-1.17.37-1.97.35-2.77-.03-.89.14-1.5,1.01-1.94.43-.21.62-.85,1.03-1.16.61-.47,1.4-1.25,1.97-1.14,1.61.3,2.97-.27,4.05-1.13,1.16-.94,2.03-.61,2.93.05,1.46,1.06,2.85,2.22,4.23,3.39.33.28.76.93.65,1.18-.57,1.25.06,2.31.4,3.39.39,1.23.27,2.22-.53,3.32-.59.8-.7,1.95-1.03,2.94.12.2.23.41.35.61h-.01Z"/>
      <path d="m726.83,60.98c-1.68-.14-3.1-.11-4.44-.41-.98-.21-2.15-.63-2.72-1.35-.84-1.07-1.24-2.48-1.79-3.77-.28-.66-.72-1.39-.64-2.03.1-.84.53-1.7,1.02-2.42.74-1.08,1.65-2.04,2.51-3.04.09-.1.29-.19.41-.16,2.21.5,4.27-.99,6.66-.16,2.01.7,3.17,2.22,4.75,3.29.11.08.17.24.25.37,1.32,2.35-.55,7.32-3.05,8.28-1.14.44-2.22,1.04-2.94,1.39h-.02Z"/>
      <path d="m318.26,80.21c.75,1.98,1.37,4.03,2.29,5.94,1.14,2.36,2.52,4.59,3.79,6.88.36.65.61,1.38,1.05,1.96.55.73,1.2,1.4,1.89,1.99,1.17.99,2.39,1.92,3.63,2.82,1.48,1.08,2.8,2.25,3.78,3.87.37.62,1.58.79,2.43,1.08.99.33,1.97.37,2.77,1.41.43.56,2.08.63,2.96.31,2.02-.73,3.82-2.07,5.86-2.72,1.86-.6,2.98-1.66,3.92-3.26.61-1.04,1.65-.95,2.45-.06.22.24.49.47.79.6.95.43,1.41.87.89,2.07-.27.64-.05,1.7.32,2.37.76,1.38.53,2.52-.46,3.55-1.77,1.85-3.64,3.62-5.43,5.45-.58.59-1.05,1.29-1.46,1.8-.67.21-1.23.44-1.8.56-.62.13-1.25.15-1.88.21-.28.03-.7-.08-.82.06-1.07,1.27-2.26.84-3.56.47-.83-.24-1.76-.09-2.64-.16-.79-.06-1.6-.06-2.34-.29-1.8-.57-3.65-1.12-5.33-1.96-1.15-.58-2.01-1.71-3.08-2.49-.8-.59-1.53-1.48-2.79-1.06-.16.05-.56-.43-.78-.72-.8-1.05-1.44-2.24-2.37-3.16-1.51-1.5-3.34-2.7-4.77-4.27-1.21-1.33-2.05-3-3.03-4.54-.82-1.29-1.66-2.57-2.4-3.9-1.31-2.34-2.88-4.61-3.74-7.11-.8-2.36-1.23-4.97-.48-7.52.57-1.93,1.32-3.8,1.86-5.74.24-.86.36-1.89.12-2.72-.29-1.01-.05-1.7.45-2.5.31-.49.59-1.09.63-1.66.11-1.5,1.13-2.17,2.12-3.13,1.47-1.43,2.48-3.34,3.6-5.11.41-.64.58-1.24,1.57-1.31.62-.04,1.24-.71,1.77-1.2,2.51-2.3,5.12-4.41,8.49-5.36.49-.14.85-.66,1.33-.89,2.88-1.37,5.83-2.49,9.12-1.96.25.04.57,0,.73.14,1.92,1.79,4.69,2.07,6.54,4.32,1.59,1.93,1.62,3.44.98,5.44-.09.28.1.65.14.98.35,2.72,1.04,5.46.9,8.15-.08,1.62-.59,3.21-.6,4.97,0,1.73-1.58,3.43-2.37,5.19-.96,2.13-3.18,3-4.63,4.66-.63.72-2.37.52-3.62.61-.92.07-1.87,0-2.79-.11-1.9-.2-3.78-.51-5.68-.69-2.93-.27-5.56-2.25-8.69-1.52-.35.08-.86-.52-1.29-.81-.12.02-.24.04-.36.05l.02.02Zm6.84-20.52c0,.76-.12,1.54-1.35,2.03-1.97.79-2.15,2.56-.72,4.09.5.53.9,1.17,1.28,1.8.63,1.02,1.14,2.11,1.83,3.08.27.38.87.74,1.32.75,1.27.03,2.54-.12,3.81-.23.21-.02.51-.18.6-.36.77-1.7,2.26-3,2.4-5.07.12-1.68.72-3.33,1.14-4.99.32-1.27-.63-2.98-1.75-2.88-1.47.13-2.92.46-4.37.76-1.33.28-2.65.64-4.19,1.02h0Z"/>
    </g>
  </g>
</svg>